<?xml version="1.0" encoding="utf-8"?>
<!-- Svg Vector Icons : http://www.onlinewebfonts.com/icon -->
<!DOCTYPE svg PUBLIC "-//W3C//DTD SVG 1.1//EN" "http://www.w3.org/Graphics/SVG/1.1/DTD/svg11.dtd" >
<svg version="1.1" width="16px" height="16px" xmlns="http://www.w3.org/2000/svg" xmlns:xlink="http://www.w3.org/1999/xlink" x="16px" y="16px" viewBox="0 0 1000 1000" enable-background="new 0 0 1000 1000" xml:space="preserve">
<metadata> Svg Vector Icons : http://www.onlinewebfonts.com/icon </metadata>
<g><path d="M74,947.4l119.1-0.1c280.7-0.2,570.7-0.4,732.9-1.6c-0.2-6.7-0.5-13.3-0.9-19.9c-12.9-188.5-151.7-347.2-337.4-385.9c0,0-57.1-11.2-90.3-11.2c-33.3,0-90.1,12.5-90.1,12.5C223.6,581.8,86.9,740.7,74.8,927.4C74.4,934,74.1,940.7,74,947.4 M497.1,494.6l82.3-35.5c77.7-33.6,128-110,128-194.6c0-116.8-95.1-211.9-211.9-211.9c-116.8,0-211.9,95.1-211.9,211.9c0,85.9,51.3,162.7,130.7,195.7L497.1,494.6 M54.4,990c-11.6,0-23.1-23.1-23.1-34.8c0-10.2,0.3-20.5,1-30.5C45.9,715.3,197.9,543.9,398,499.5c-92.1-38.3-156.9-129.1-156.9-235C241.1,123.9,355,10,495.5,10C636.1,10,750,123.9,750,264.5c0,104.7-63.3,194.6-153.7,233.7c202.3,42.2,356.8,214.2,371.3,424.7c0.7,10.7,1.1,21.4,1.1,32.3c0,11.1-12,32.9-22.9,33C763.6,989.7,397.6,989.7,54.4,990L54.4,990L54.4,990z"/></g>
</svg>