<svg width="16px" height="16px" id="Layer_1" data-name="Layer 1" xmlns="http://www.w3.org/2000/svg" viewBox="0 0 512 512"><title>male-sign-flat</title><rect y="9.14" width="512" height="493.72" rx="54.99" ry="54.99" transform="translate(512) rotate(90)" fill="#e6d6a6"/><rect x="20.23" y="11.1" width="471.53" height="489.81" rx="43.89" ry="43.89" fill="#87884a"/><path d="M318.42,367.55c40.2-43.22,42.06-108.62,7-153.95l41.75-44.88.84,36.92c.13,5.89,7.39,10.42,16.17,10.19s15.82-5.21,15.69-11.07l-1.73-74a25.5,25.5,0,0,0-.33-10.33,7.64,7.64,0,0,0-.75-2.5,18.18,18.18,0,0,0-4.54-7,16.36,16.36,0,0,0-7.15-3.84,2.37,2.37,0,0,1-.27,0,21.57,21.57,0,0,0-10.22.14l-75.45,3.43c-5.86.28-10.27,7.67-9.87,16.52s5.46,15.79,11.33,15.53l37.77-1.73-42.46,45.68c-47.64-31.08-112.31-24.4-152.33,18.63-44.69,48.09-42,123.6,6,168.35l.07.07A119.29,119.29,0,0,0,318.42,367.55Zm-84.16.52A81.83,81.83,0,1,1,287,226.35l2.37-2.46-2.32,2.5a81.84,81.84,0,0,1-52.81,141.67Z" fill="#eedaa6"/></svg>